<svg id="Icon_awesome-calendar-alt" data-name="Icon awesome-calendar-alt" xmlns="http://www.w3.org/2000/svg" width="91.75" height="100.143" viewBox="0 0 91.75 100.143">
  <path id="Icon_awesome-calendar-alt-2" data-name="Icon awesome-calendar-alt" d="M0,90.755a9.62,9.62,0,0,0,9.83,9.388H81.92a9.62,9.62,0,0,0,9.83-9.388v-53.2H0ZM65.536,52.419a2.411,2.411,0,0,1,2.458-2.347h8.192a2.411,2.411,0,0,1,2.458,2.347v7.824a2.411,2.411,0,0,1-2.458,2.347H67.993a2.411,2.411,0,0,1-2.458-2.347Zm0,25.036a2.411,2.411,0,0,1,2.458-2.347h8.192a2.411,2.411,0,0,1,2.458,2.347v7.824a2.411,2.411,0,0,1-2.458,2.347H67.993a2.411,2.411,0,0,1-2.458-2.347ZM39.321,52.419a2.411,2.411,0,0,1,2.458-2.347h8.192a2.411,2.411,0,0,1,2.458,2.347v7.824a2.411,2.411,0,0,1-2.458,2.347H41.779a2.411,2.411,0,0,1-2.458-2.347Zm0,25.036a2.411,2.411,0,0,1,2.458-2.347h8.192a2.411,2.411,0,0,1,2.458,2.347v7.824a2.411,2.411,0,0,1-2.458,2.347H41.779a2.411,2.411,0,0,1-2.458-2.347ZM13.107,52.419a2.411,2.411,0,0,1,2.458-2.347h8.192a2.411,2.411,0,0,1,2.458,2.347v7.824a2.411,2.411,0,0,1-2.458,2.347H15.565a2.411,2.411,0,0,1-2.458-2.347Zm0,25.036a2.411,2.411,0,0,1,2.458-2.347h8.192a2.411,2.411,0,0,1,2.458,2.347v7.824a2.411,2.411,0,0,1-2.458,2.347H15.565a2.411,2.411,0,0,1-2.458-2.347ZM81.92,12.518h-9.83V3.129A3.215,3.215,0,0,0,68.813,0H62.259a3.215,3.215,0,0,0-3.277,3.129v9.388H32.768V3.129A3.215,3.215,0,0,0,29.491,0H22.938a3.215,3.215,0,0,0-3.277,3.129v9.388H9.83A9.62,9.62,0,0,0,0,21.906v9.388H91.75V21.906A9.62,9.62,0,0,0,81.92,12.518Z" fill="#3f06ff"/>
</svg>
