<svg id="Ícone_Casa" data-name="Ícone Casa" xmlns="http://www.w3.org/2000/svg" width="100" height="100" viewBox="0 0 100 100">
  <g id="Ícone_de_Esportes" data-name="Ícone de Esportes">
    <circle id="Elipse_2" data-name="Elipse 2" cx="50" cy="50" r="50" fill="#0da1ff"/>
  </g>
  <g id="Icon_awesome-home" data-name="Icon awesome-home" transform="translate(25 31)">
    <path id="Icon_awesome-home-2" data-name="Icon awesome-home" d="M24.336,13.217l-16,13.18V40.623a1.389,1.389,0,0,0,1.389,1.389l9.727-.025A1.389,1.389,0,0,0,20.83,40.6V32.29A1.389,1.389,0,0,1,22.219,30.9h5.555a1.389,1.389,0,0,1,1.389,1.389v8.3a1.389,1.389,0,0,0,1.389,1.393l9.723.027a1.389,1.389,0,0,0,1.389-1.389V26.388l-16-13.171A1.058,1.058,0,0,0,24.336,13.217Zm25.278,8.959-7.256-5.981V4.171A1.042,1.042,0,0,0,41.316,3.13H36.455a1.042,1.042,0,0,0-1.042,1.042v6.3L27.643,4.08a4.166,4.166,0,0,0-5.295,0L.377,22.175a1.042,1.042,0,0,0-.139,1.467l2.213,2.691a1.042,1.042,0,0,0,1.468.141L24.336,9.658a1.058,1.058,0,0,1,1.328,0L46.081,26.474a1.042,1.042,0,0,0,1.467-.139l2.213-2.691a1.042,1.042,0,0,0-.148-1.47Z" transform="translate(0.001 -3.13)" fill="#fff"/>
  </g>
</svg>
