<svg id="Icon_awesome-clock" data-name="Icon awesome-clock" xmlns="http://www.w3.org/2000/svg" width="102" height="102" viewBox="0 0 102 102">
  <path id="Icon_awesome-clock-2" data-name="Icon awesome-clock" d="M51.781.781a51,51,0,1,0,51,51A50.991,50.991,0,0,0,51.781.781Zm11.742,72L45.386,59.6A2.484,2.484,0,0,1,44.378,57.6V22.991a2.475,2.475,0,0,1,2.468-2.468h9.871a2.475,2.475,0,0,1,2.468,2.468V51.308l13.058,9.5a2.466,2.466,0,0,1,.535,3.455l-5.8,7.979A2.485,2.485,0,0,1,63.524,72.778Z" transform="translate(-0.781 -0.781)" fill="#3f06ff"/>
</svg>
