<svg id="Ícone_Ginástica" data-name="Ícone Ginástica" xmlns="http://www.w3.org/2000/svg" width="100" height="100" viewBox="0 0 100 100">
  <g id="Ícone_de_Esportes" data-name="Ícone de Esportes">
    <circle id="Elipse_2" data-name="Elipse 2" cx="50" cy="50" r="50" fill="#0da1ff"/>
  </g>
  <g id="Icon_map-gym" data-name="Icon map-gym" transform="translate(25 20)">
    <path id="Icon_map-gym-2" data-name="Icon map-gym" d="M18.954,47.479a1.067,1.067,0,0,1-.053,1.5l-2.3,2.153a1.059,1.059,0,0,1-1.5-.054L1.7,36.629a1.067,1.067,0,0,1,.054-1.5l2.305-2.15a1.058,1.058,0,0,1,1.5.054ZM36.061,20.291a1.067,1.067,0,0,1-.054,1.5L21.518,35.328a1.059,1.059,0,0,1-1.5-.054l-3.459-3.732a1.067,1.067,0,0,1,.054-1.5L31.1,16.505a1.057,1.057,0,0,1,1.495.054l3.463,3.732ZM23.884,42.871a1.068,1.068,0,0,1-.054,1.5l-2.305,2.152a1.058,1.058,0,0,1-1.5-.054L6.629,32.021a1.067,1.067,0,0,1,.053-1.5l2.3-2.151a1.059,1.059,0,0,1,1.5.054ZM46.209,20.81a1.067,1.067,0,0,1-.055,1.5l-2.3,2.152a1.06,1.06,0,0,1-1.5-.053L28.951,9.963A1.066,1.066,0,0,1,29,8.463l2.311-2.157a1.057,1.057,0,0,1,1.495.054l13.4,14.45Zm4.922-4.6a1.069,1.069,0,0,1-.054,1.5l-2.3,2.151a1.057,1.057,0,0,1-1.495-.053L33.883,5.357a1.069,1.069,0,0,1,.053-1.5l2.3-2.155a1.055,1.055,0,0,1,1.493.053l13.4,14.457Z" transform="translate(-1.414 -1.416)" fill="#fff"/>
  </g>
</svg>
