<svg id="Ícone_de_Outros" data-name="Ícone de Outros" xmlns="http://www.w3.org/2000/svg" width="100" height="100" viewBox="0 0 100 100">
  <g id="Ícone_de_Esportes" data-name="Ícone de Esportes">
    <g id="Grupo_11" data-name="Grupo 11">
      <circle id="Elipse_2" data-name="Elipse 2" cx="50" cy="50" r="50" fill="#0da1ff"/>
    </g>
  </g>
  <g id="Icon_awesome-sticky-note" data-name="Icon awesome-sticky-note" transform="translate(25 25)">
    <path id="Icon_awesome-sticky-note-2" data-name="Icon awesome-sticky-note" d="M34.821,35.268H50V5.8a2.672,2.672,0,0,0-2.679-2.679H2.679A2.672,2.672,0,0,0,0,5.8V50.446a2.672,2.672,0,0,0,2.679,2.679H32.143V37.946A2.686,2.686,0,0,1,34.821,35.268Zm14.4,6.138L38.281,52.344a2.677,2.677,0,0,1-1.9.781h-.67V38.839H50v.681A2.67,2.67,0,0,1,49.219,41.406Z" transform="translate(0 -3.125)" fill="#fff"/>
  </g>
</svg>
