<svg id="Icon_metro-qrcode" data-name="Icon metro-qrcode" xmlns="http://www.w3.org/2000/svg" width="70" height="71" viewBox="0 0 70 71">
  <path id="Icon_metro-qrcode-2" data-name="Icon metro-qrcode" d="M24.446,6.366H6.946v17.75h17.5Zm4.375-4.437V28.553H2.571V1.928ZM11.321,10.8h8.75v8.875h-8.75ZM68.2,6.366H50.7v17.75H68.2V6.366Zm4.375-4.437V28.553H46.321V1.928h26.25ZM55.071,10.8h8.75v8.875h-8.75ZM24.446,50.741H6.946v17.75h17.5ZM28.821,46.3V72.928H2.571V46.3Zm-17.5,8.875h8.75v8.875h-8.75ZM33.2,1.928h4.375V6.366H33.2Zm4.375,4.437h4.375V10.8H37.571ZM33.2,10.8h4.375v4.437H33.2Zm4.375,4.437h4.375v4.437H37.571ZM33.2,19.678h4.375v4.438H33.2Zm4.375,4.438h4.375v4.438H37.571ZM33.2,28.553h4.375v4.438H33.2Zm0,8.875h4.375v4.438H33.2Zm4.375,4.438h4.375V46.3H37.571ZM33.2,46.3h4.375v4.438H33.2Zm4.375,4.438h4.375v4.438H37.571ZM33.2,55.178h4.375v4.437H33.2Zm4.375,4.437h4.375v4.437H37.571ZM33.2,64.053h4.375v4.438H33.2Zm4.375,4.438h4.375v4.438H37.571ZM68.2,37.428h4.375v4.438H68.2Zm-61.25,0h4.375v4.438H6.946Zm4.375-4.437H15.7v4.438H11.321Zm-8.75,0H6.946v4.438H2.571Zm17.5,0h4.375v4.438H20.071Zm4.375,4.438h4.375v4.438H24.446Zm4.375-4.437H33.2v4.438H28.821Zm13.125,4.438h4.375v4.438H41.946Zm4.375-4.437H50.7v4.438H46.321ZM50.7,37.428h4.375v4.438H50.7Zm4.375-4.437h4.375v4.438H55.071Zm4.375,4.438h4.375v4.438H59.446Zm4.375-4.437H68.2v4.438H63.821ZM68.2,46.3h4.375v4.437H68.2Zm-26.25,0h4.375v4.437H41.946Zm4.375-4.437H50.7V46.3H46.321ZM50.7,46.3h4.375v4.437H50.7Zm8.75,0h4.375v4.437H59.446Zm4.375-4.437H68.2V46.3H63.821ZM68.2,55.178h4.375v4.438H68.2Zm-26.25,0h4.375v4.438H41.946Zm4.375-4.438H50.7v4.438H46.321Zm8.75,0h4.375v4.438H55.071Zm4.375,4.438h4.375v4.438H59.446Zm4.375-4.438H68.2v4.438H63.821ZM68.2,64.053h4.375v4.437H68.2ZM46.321,59.616H50.7v4.438H46.321ZM50.7,64.053h4.375v4.437H50.7Zm4.375-4.437h4.375v4.438H55.071Zm4.375,4.438h4.375v4.437H59.446ZM46.321,68.491H50.7v4.438H46.321Zm8.75,0h4.375v4.438H55.071Zm8.75,0H68.2v4.438H63.821Z" transform="translate(-2.571 -1.928)" fill="#1700c2"/>
</svg>
