<svg id="Sino" xmlns="http://www.w3.org/2000/svg" width="84.975" height="100.143" viewBox="0 0 84.975 100.143">
  <path id="Icon_awesome-bell" data-name="Icon awesome-bell" d="M42.487,100.143A12.331,12.331,0,0,0,54.621,87.625H30.354A12.331,12.331,0,0,0,42.487,100.143ZM83.341,70.861C79.677,66.8,72.82,60.692,72.82,40.683A30.657,30.657,0,0,0,48.553,10.335V6.259a6.069,6.069,0,1,0-12.132,0v4.076A30.657,30.657,0,0,0,12.154,40.683C12.154,60.692,5.3,66.8,1.633,70.861A6.283,6.283,0,0,0,6.089,81.366h72.8a6.283,6.283,0,0,0,4.455-10.505Z" transform="translate(0)" fill="#1700c2"/>
</svg>
