<svg id="Ícone_de_Trabalho" data-name="Ícone de Trabalho" xmlns="http://www.w3.org/2000/svg" width="100" height="100" viewBox="0 0 100 100">
  <g id="Ícone_de_Esportes" data-name="Ícone de Esportes">
    <circle id="Elipse_2" data-name="Elipse 2" cx="50" cy="50" r="50" fill="#0da1ff"/>
  </g>
  <g id="Icon_material-work" data-name="Icon material-work" transform="translate(25 21.25)">
    <path id="Icon_material-work-2" data-name="Icon material-work" d="M49.167,14.167h-10v-5a4.983,4.983,0,0,0-5-5h-10a4.983,4.983,0,0,0-5,5v5h-10a4.962,4.962,0,0,0-4.975,5l-.025,27.5a4.983,4.983,0,0,0,5,5h40a4.983,4.983,0,0,0,5-5v-27.5a4.983,4.983,0,0,0-5-5Zm-15,0h-10v-5h10Z" transform="translate(-4.167 -4.167)" fill="#fff"/>
  </g>
</svg>
