<svg id="Ícone_de_Comida" data-name="Ícone de Comida" xmlns="http://www.w3.org/2000/svg" width="100" height="100" viewBox="0 0 100 100">
  <g id="Ícone_de_Esportes" data-name="Ícone de Esportes">
    <circle id="Elipse_2" data-name="Elipse 2" cx="50" cy="50" r="50" fill="#0da1ff"/>
  </g>
  <g id="Icon_map-food" data-name="Icon map-food" transform="translate(21 19)">
    <path id="Icon_map-food-2" data-name="Icon map-food" d="M50.89,17.269l-4.1,36.654H32.946L28.864,17.086h16.9L49.106,3.923,51,4.574,47.795,17.241ZM26.906,38.475s.518-4.753-6.661-4.753H8.811c-7.169,0-6.661,4.753-6.661,4.753ZM2.15,49.17s-.507,4.753,6.661,4.753H20.246c7.179,0,6.661-4.753,6.661-4.753Zm23.682-2.377c1.175,0,2.124-1.324,2.124-2.97s-.949-2.972-2.124-2.972H3.125C1.955,40.852,1,42.168,1,43.824s.955,2.97,2.125,2.97Z" transform="translate(-1 -3.923)" fill="#fff"/>
  </g>
</svg>
